# xmcd CD database file
#
# Track frame offsets:
#	150
#	14920
#	32307
#	48637
#	66250
#	80992
#	98832
#	117230
#	130207
#	142670
#	161130
#	173072
#	185297
#	195885
#	208387
#	219222
#	232412
#	244872
#	259277
#	272230
#	290655
#	305325
#	319462
#
# Disc length: 4435 seconds
#
# Revision: 0
# Processed by: cddbd v1.5.1PL0 Copyright (c) Steve Scherf et al.
# Submitted via: CDex 1.51
#
DISCID=64115117
DTITLE=Kai Winding - Trombone for Two/The Trombone Sound
DYEAR=2001
DGENRE=Jazz
TTITLE0=Whiffenproof Song
TTITLE1=Give Me the Simple Life
TTITLE2=Close As Pages in a Book
TTITLE3=Turnabout
TTITLE4=Trombone for Two
TTITLE5=It's Sand, Man
TTITLE6=We Two
TTITLE7=Let's Get Away from It All
TTITLE8=Goodbye
TTITLE9=This Can't Be Love
TTITLE10=Whistle While You Work
TTITLE11=My Little Girl
TTITLE12=The Blue Room
TTITLE13=Nutcracker
TTITLE14=Breezin' Along With the Breeze
TTITLE15=Jim and Andy's
TTITLE16=Old School Ties
TTITLE17=Captain Kut-Cha
TTITLE18=Every Girl Is My Valentine
TTITLE19=Blanket of Blues
TTITLE20=Sunday
TTITLE21=Nice Work if You Can Get It
TTITLE22=I Want to Be Happy
EXTD=YEAR: 2001
EXTT0=
EXTT1=
EXTT2=
EXTT3=
EXTT4=
EXTT5=
EXTT6=
EXTT7=
EXTT8=
EXTT9=
EXTT10=
EXTT11=
EXTT12=
EXTT13=
EXTT14=
EXTT15=
EXTT16=
EXTT17=
EXTT18=
EXTT19=
EXTT20=
EXTT21=
EXTT22=
PLAYORDER=
